<svg width="718" height="127" viewBox="0 0 718 127" fill="none" xmlns="http://www.w3.org/2000/svg">
<path d="M437.5 125C469.256 125 495 99.2959 495 67.5882C495 35.8806 469.256 10.1765 437.5 10.1765C409.713 10.1765 387.187 32.6676 387.187 60.4118C387.187 88.156 409.713 110.647 437.5 110.647C461.317 110.647 480.625 91.369 480.625 67.5882C480.625 43.8075 461.317 24.5294 437.5 24.5294C417.652 24.5294 401.562 40.5945 401.562 60.4118C401.562 80.229 417.652 96.2941 437.5 96.2941C453.378 96.2941 466.25 83.4421 466.25 67.5882C466.25 51.7344 453.378 38.8824 437.5 38.8824C425.591 38.8824 415.937 48.5214 415.937 60.4118C415.937 72.3021 425.591 81.9412 437.5 81.9412C445.439 81.9412 451.875 75.5151 451.875 67.5882C451.875 59.6613 445.439 53.2353 437.5 53.2353M437.5 3C405.744 3 380 28.7041 380 60.4118C380 92.1194 405.744 117.824 437.5 117.824C465.287 117.824 487.812 95.3324 487.812 67.5882C487.812 39.844 465.287 17.3529 437.5 17.3529C413.683 17.3529 394.375 36.631 394.375 60.4118C394.375 84.1925 413.683 103.471 437.5 103.471C457.348 103.471 473.437 87.4055 473.437 67.5882C473.437 47.771 457.348 31.7059 437.5 31.7059C421.622 31.7059 408.75 44.5579 408.75 60.4118C408.75 76.2656 421.622 89.1176 437.5 89.1176C449.409 89.1176 459.062 79.4786 459.062 67.5882C459.062 55.6979 449.409 46.0588 437.5 46.0588C429.561 46.0588 423.125 52.4849 423.125 60.4118C423.125 68.3387 429.561 74.7647 437.5 74.7647" stroke="white" stroke-width="4" stroke-linecap="round" stroke-linejoin="round"/>
<path d="M25.12 118.4H0V0H25.12L60.32 88.32L95.68 0H121.12V118.4H96V93.6C96 68 96 62.4 97.28 53.6L72.16 118.4H48.48L23.52 53.6C24.96 62.4 25.12 72.32 25.12 85.28V118.4Z" fill="white"/>
<path d="M220.981 118.4H145.781V0H220.981V24H171.701V47.2H215.381V69.92H171.701V94.4H220.981V118.4Z" fill="white"/>
<path d="M267.307 118.4H242.188V0H267.307L302.508 88.32L337.867 0H363.307V118.4H338.188V93.6C338.188 68 338.188 62.4 339.467 53.6L314.348 118.4H290.668L265.707 53.6C267.147 62.4 267.307 72.32 267.307 85.28V118.4Z" fill="white"/>
<path d="M541.389 118.4H515.469V0H561.229C590.029 0 606.349 13.92 606.349 38.4C606.349 53.76 599.789 64.64 586.669 71.36L607.469 118.4H579.149L561.389 76.96H541.389V118.4ZM541.389 23.04V54.24H561.069C572.429 54.24 578.989 48.48 578.989 38.4C578.989 28.48 572.749 23.04 561.229 23.04H541.389Z" fill="white"/>
<path d="M651.78 73.44L611.78 0H640.74L660.58 38.4C662.5 42.08 663.78 44.96 665.06 48C666.5 45.12 667.78 42.08 669.7 38.24L689.54 0H717.7L677.7 73.44V118.4H651.78V73.44Z" fill="white"/>
</svg>
